<svg width="96" height="97" viewBox="0 0 96 97" fill="none" xmlns="http://www.w3.org/2000/svg">
<path d="M56 8.375H24C21.8783 8.375 19.8434 9.21785 18.3431 10.7181C16.8429 12.2184 16 14.2533 16 16.375V80.375C16 82.4967 16.8429 84.5316 18.3431 86.0319C19.8434 87.5321 21.8783 88.375 24 88.375H72C74.1217 88.375 76.1566 87.5321 77.6569 86.0319C79.1571 84.5316 80 82.4967 80 80.375V32.375L56 8.375ZM72 80.375H24V16.375H52V36.375H72V80.375Z" fill="#221A16"/>
<line x1="29.0607" y1="39.3143" x2="41.0607" y2="51.3143" stroke="#221A16" stroke-width="3"/>
<line x1="29.9393" y1="51.3143" x2="41.9393" y2="39.3143" stroke="#221A16" stroke-width="3"/>
<line x1="53.0607" y1="39.3143" x2="65.0607" y2="51.3143" stroke="#221A16" stroke-width="3"/>
<line x1="53.9393" y1="51.3143" x2="65.9393" y2="39.3143" stroke="#221A16" stroke-width="3"/>
<path d="M36 68.375V68.375C38.1761 65.8362 41.353 64.375 44.6969 64.375H51.3031C54.647 64.375 57.8239 65.8362 60 68.375V68.375" stroke="#221A16" stroke-width="1.6"/>
</svg>
