<svg width="40" height="39" viewBox="0 0 40 39" fill="none" xmlns="http://www.w3.org/2000/svg">
<path d="M20.0002 32.9875C15.2085 32.9875 10.9727 30.5342 8.50016 26.8542C8.55766 23.0209 16.1668 20.9125 20.0002 20.9125C23.8335 20.9125 31.4427 23.0209 31.5002 26.8542C29.0277 30.5342 24.7918 32.9875 20.0002 32.9875ZM20.0002 5.77087C21.5252 5.77087 22.9877 6.37668 24.066 7.45501C25.1444 8.53335 25.7502 9.99588 25.7502 11.5209C25.7502 13.0459 25.1444 14.5084 24.066 15.5867C22.9877 16.6651 21.5252 17.2709 20.0002 17.2709C18.4752 17.2709 17.0126 16.6651 15.9343 15.5867C14.856 14.5084 14.2502 13.0459 14.2502 11.5209C14.2502 9.99588 14.856 8.53335 15.9343 7.45501C17.0126 6.37668 18.4752 5.77087 20.0002 5.77087ZM20.0002 0.020874C17.4832 0.020874 14.9908 0.516635 12.6654 1.47985C10.34 2.44306 8.22707 3.85487 6.44728 5.63466C2.85284 9.22911 0.833496 14.1042 0.833496 19.1875C0.833496 24.2709 2.85284 29.146 6.44728 32.7404C8.22707 34.5202 10.34 35.932 12.6654 36.8952C14.9908 37.8585 17.4832 38.3542 20.0002 38.3542C25.0835 38.3542 29.9586 36.3349 33.553 32.7404C37.1475 29.146 39.1668 24.2709 39.1668 19.1875C39.1668 8.58837 30.5418 0.020874 20.0002 0.020874Z" fill="white"/>
</svg> 